<svg width="15" height="14" viewBox="0 0 15 14" fill="none" xmlns="http://www.w3.org/2000/svg">
<path d="M6.66263 0.579405C6.84973 0.00358558 7.66436 0.0035876 7.85145 0.579407L9.08122 4.36424C9.16489 4.62175 9.40486 4.7961 9.67563 4.7961L13.6552 4.7961C14.2607 4.7961 14.5124 5.57086 14.0226 5.92674L10.803 8.26589C10.584 8.42504 10.4923 8.70715 10.576 8.96466L11.8058 12.7495C11.9928 13.3253 11.3338 13.8041 10.844 13.4483L7.62441 11.1091C7.40535 10.95 7.10873 10.95 6.88968 11.1091L3.67011 13.4483C3.18028 13.8041 2.52124 13.3253 2.70833 12.7495L3.9381 8.96466C4.02177 8.70715 3.93011 8.42504 3.71105 8.26589L0.491482 5.92674C0.0016607 5.57086 0.253397 4.7961 0.858849 4.7961L4.83846 4.7961C5.10922 4.7961 5.34919 4.62175 5.43287 4.36424L6.66263 0.579405Z" fill="#FAC952"/>
</svg>
